<svg xmlns="http://www.w3.org/2000/svg" viewBox="0 0 512 512">
  <rect width="512" height="512" fill="#080808"/>
  <defs>
    <radialGradient id="g" cx="50%" cy="42%" r="55%">
      <stop offset="0%" stop-color="#c9a227" stop-opacity="0.28"/>
      <stop offset="70%" stop-color="#c9a227" stop-opacity="0.04"/>
      <stop offset="100%" stop-color="#c9a227" stop-opacity="0"/>
    </radialGradient>
    <linearGradient id="c" x1="0" y1="0" x2="0" y2="1">
      <stop offset="0%" stop-color="#e8c84a"/>
      <stop offset="100%" stop-color="#a07010"/>
    </linearGradient>
    <linearGradient id="h" x1="0" y1="0" x2="0" y2="1">
      <stop offset="0%" stop-color="#c9a227" stop-opacity="0.95"/>
      <stop offset="100%" stop-color="#7a5510" stop-opacity="0.8"/>
    </linearGradient>
  </defs>
  <circle cx="256" cy="256" r="220" fill="url(#g)"/>
  <circle cx="256" cy="256" r="198" fill="none" stroke="#c9a227" stroke-width="4" stroke-opacity="0.28"/>
  <circle cx="256" cy="256" r="186" fill="none" stroke="#c9a227" stroke-width="1.2" stroke-opacity="0.18"/>
  <g transform="translate(256 256) scale(4.15) translate(-40 -40)">
    <polygon points="26,16 54,16 46,37 34,37" fill="url(#h)" opacity="0.92"/>
    <polygon points="34,43 46,43 54,64 26,64" fill="url(#h)" opacity="0.72"/>
    <line x1="34" y1="37" x2="46" y2="37" stroke="#c9a227" stroke-width="0.9" stroke-opacity="0.7"/>
    <line x1="34" y1="43" x2="46" y2="43" stroke="#c9a227" stroke-width="0.9" stroke-opacity="0.7"/>
    <rect x="24" y="13" width="32" height="4.2" rx="1.6" fill="url(#c)"/>
    <rect x="24" y="62.8" width="32" height="4.2" rx="1.6" fill="url(#c)" opacity="0.8"/>
    <circle cx="40" cy="47" r="1.9" fill="#e8c84a"/>
    <rect x="38.1" y="28" width="3.8" height="24" rx="1.1" fill="url(#c)"/>
    <rect x="30" y="34.8" width="20" height="3.8" rx="1.1" fill="url(#c)"/>
    <g stroke="#c9a227" stroke-width="1" stroke-linecap="round" stroke-opacity="0.6">
      <line x1="40" y1="4" x2="40" y2="9"/>
      <line x1="52" y1="7" x2="49.5" y2="11"/>
      <line x1="28" y1="7" x2="30.5" y2="11"/>
      <line x1="60" y1="16" x2="56.5" y2="18.5"/>
      <line x1="20" y1="16" x2="23.5" y2="18.5"/>
    </g>
  </g>
</svg>
